<svg xmlns="http://www.w3.org/2000/svg" width="635.1" height="635.1" version="1">
  <style>
    /* <![CDATA[ */
    path {
      fill: none;
      stroke: #fff;
    }
    text {
      font-size: 15px;
      font-weight: 400;
      font-family: monospace;
      text-align: center;
      line-height: 100%;
      fill: #fff;
    }
    /* ]]> */
  </style>
  <text x="-552.3" y="158.2" text-anchor="middle" transform="rotate(-90 -169.6 -65.2)">
    <tspan x="-552.3" y="158.2">270</tspan>
  </text>
  <path stroke-linecap="round" stroke-width=".9" d="M5.3 262.5l36.2 6.4"/>
  <text x="-474.5" y="226.1" text-anchor="middle" transform="rotate(-80 -181.1 -68.3)">
    <tspan x="-474.5" y="226.1">280</tspan>
  </text>
  <path stroke-linecap="round" stroke-width=".9" d="M19.6 209l34.6 12.7"/>
  <text x="-382.2" y="301" text-anchor="middle" transform="rotate(-70 -208.9 -58.5)">
    <tspan x="-382.2" y="301">290</tspan>
  </text>
  <path stroke-linecap="round" stroke-width=".9" d="M43 159l31.8 18.4"/>
  <text x="-278.3" y="358.8" text-anchor="middle" transform="rotate(-60 -244.6 -46)">
    <tspan x="-278.3" y="358.8">300</tspan>
  </text>
  <path stroke-linecap="round" stroke-width=".9" d="M74.6 113.7l28.2 23.7"/>
  <text x="-166" y="397.7" text-anchor="middle" transform="rotate(-50 -293 -29)">
    <tspan x="-166" y="397.7">310</tspan>
  </text>
  <path stroke-linecap="round" stroke-width=".9" d="M113.7 74.6l23.7 28.2"/>
  <text x="-31.7" y="430.6" text-anchor="middle" transform="rotate(-40 -374.8 26)">
    <tspan x="-31.7" y="430.6">320</tspan>
  </text>
  <path stroke-linecap="round" stroke-width=".9" d="M159 43l18.4 31.8"/>
  <text x="70.3" y="414.6" text-anchor="middle" transform="rotate(-30 -479.4 36.5)">
    <tspan x="70.3" y="414.6">330</tspan>
  </text>
  <path stroke-linecap="round" stroke-width=".9" d="M209 19.6l12.7 34.6"/>
  <text x="187" y="392.1" text-anchor="middle" transform="rotate(-20 -707 116.4)">
    <tspan x="187" y="392.1">340</tspan>
  </text>
  <path stroke-linecap="round" stroke-width=".9" d="M262.5 5.3l6.4 36.2"/>
  <text x="298.1" y="349.7" text-anchor="middle" transform="rotate(-10 -1383.2 353.8)">
    <tspan x="298.1" y="349.7">350</tspan>
  </text>
  <path stroke-linecap="round" stroke-width=".9" d="M317.5.4v36.9"/>
  <text x="400.1" y="288.6" text-anchor="middle" transform="translate(-82.5 -234.8)">
    <tspan x="400.1" y="288.6">0</tspan>
  </text>
  <path stroke-linecap="round" stroke-width=".9" d="M372.6 5.3l-6.4 36.2"/>
  <text x="489.9" y="210.7" text-anchor="middle" transform="rotate(10 1300.8 -588.6)">
    <tspan x="489.9" y="210.7">10</tspan>
  </text>
  <path stroke-linecap="round" stroke-width=".9" d="M426 19.6l-12.6 34.6"/>
  <text x="564.9" y="118.5" text-anchor="middle" transform="rotate(20 624.6 -351.2)">
    <tspan x="564.9" y="118.5">20</tspan>
  </text>
  <path stroke-linecap="round" stroke-width=".9" d="M476 43l-18.3 31.8"/>
  <text x="622.7" y="14.6" text-anchor="middle" transform="rotate(30 397 -271.3)">
    <tspan x="622.7" y="14.6">30</tspan>
  </text>
  <path stroke-linecap="round" stroke-width=".9" d="M521.4 74.6l-23.7 28.2"/>
  <text x="661.5" y="-97.7" text-anchor="middle" transform="rotate(40 281.3 -230.7)">
    <tspan x="661.5" y="-97.7">40</tspan>
  </text>
  <path stroke-linecap="round" stroke-width=".9" d="M560.5 113.7l-28.2 23.7"/>
  <text x="680.3" y="-215.1" text-anchor="middle" transform="rotate(50 210.6 -205.8)">
    <tspan x="680.3" y="-215.1">50</tspan>
  </text>
  <path stroke-linecap="round" stroke-width=".9" d="M592.2 159l-32 18.4"/>
  <text x="678.4" y="-334" text-anchor="middle" transform="rotate(60 162.1 -188.8)">
    <tspan x="678.4" y="-334">60</tspan>
  </text>
  <path stroke-linecap="round" stroke-width=".9" d="M615.5 209L581 221.8"/>
  <text x="655.9" y="-450.7" text-anchor="middle" transform="rotate(70 126.4 -176.3)">
    <tspan x="655.9" y="-450.7">70</tspan>
  </text>
  <path stroke-linecap="round" stroke-width=".9" d="M629.8 262.5l-36.2 6.4"/>
  <text x="613.5" y="-561.8" text-anchor="middle" transform="rotate(80 98.7 -166.5)">
    <tspan x="613.5" y="-561.8">80</tspan>
  </text>
  <path stroke-linecap="round" stroke-width=".9" d="M634.6 317.5h-36.8"/>
  <text x="552.4" y="-663.8" text-anchor="middle" transform="rotate(90 76.2 -158.6)">
    <tspan x="552.4" y="-663.8">90</tspan>
  </text>
  <path stroke-linecap="round" stroke-width=".9" d="M629.8 372.6l-36.2-6.4"/>
  <text x="474.6" y="-753.6" text-anchor="middle" transform="rotate(100 57.3 -152)">
    <tspan x="474.6" y="-753.6">100</tspan>
  </text>
  <path stroke-linecap="round" stroke-width=".9" d="M615.5 426L581 413.4"/>
  <text x="382.3" y="-828.6" text-anchor="middle" transform="rotate(110 41 -146.3)">
    <tspan x="382.3" y="-828.6">110</tspan>
  </text>
  <path stroke-linecap="round" stroke-width=".9" d="M592.2 476l-32-18.3"/>
  <text x="278.4" y="-886.4" text-anchor="middle" transform="rotate(120 26.6 -141.2)">
    <tspan x="278.4" y="-886.4">120</tspan>
  </text>
  <path stroke-linecap="round" stroke-width=".9" d="M560.5 521.4l-28.2-23.7"/>
  <text x="166.1" y="-925.2" text-anchor="middle" transform="rotate(130 13.5 -136.6)">
    <tspan x="166.1" y="-925.2">130</tspan>
  </text>
  <path stroke-linecap="round" stroke-width=".9" d="M521.4 560.5l-23.7-28.2"/>
  <text x="48.7" y="-944" text-anchor="middle" transform="rotate(140 1.5 -132.4)">
    <tspan x="48.7" y="-944">140</tspan>
  </text>
  <path stroke-linecap="round" stroke-width=".9" d="M476 592.2l-18.3-32"/>
  <text x="-70.2" y="-942.1" text-anchor="middle" transform="rotate(150 -9.8 -128.5)">
    <tspan x="-70.2" y="-942.1">150</tspan>
  </text>
  <path stroke-linecap="round" stroke-width=".9" d="M426 615.5L413.4 581"/>
  <text x="-186.9" y="-919.6" text-anchor="middle" transform="rotate(160 -20.5 -124.7)">
    <tspan x="-186.9" y="-919.6">160</tspan>
  </text>
  <path stroke-linecap="round" stroke-width=".9" d="M372.6 629.8l-6.4-36.2"/>
  <text x="-297.9" y="-877.2" text-anchor="middle" transform="rotate(170 -31 -121)">
    <tspan x="-297.9" y="-877.2">170</tspan>
  </text>
  <path stroke-linecap="round" stroke-width=".9" d="M317.5 634.6v-36.8"/>
  <text x="-399.9" y="-816.1" text-anchor="middle" transform="rotate(180 -41.2 -117.4)">
    <tspan x="-399.9" y="-816.1">180</tspan>
  </text>
  <path stroke-linecap="round" stroke-width=".9" d="M262.5 629.8l6.4-36.2"/>
  <text x="-489.8" y="-738.3" text-anchor="middle" transform="rotate(-170 -51.5 -113.8)">
    <tspan x="-489.8" y="-738.3">190</tspan>
  </text>
  <path stroke-linecap="round" stroke-width=".9" d="M209 615.5l12.7-34.6"/>
  <text x="-564.7" y="-646" text-anchor="middle" transform="rotate(-160 -62 -110.1)">
    <tspan x="-564.7" y="-646">200</tspan>
  </text>
  <path stroke-linecap="round" stroke-width=".9" d="M159 592.2l18.4-32"/>
  <text x="-622.5" y="-542.1" text-anchor="middle" transform="rotate(-150 -72.7 -106.4)">
    <tspan x="-622.5" y="-542.1">210</tspan>
  </text>
  <path stroke-linecap="round" stroke-width=".9" d="M113.7 560.5l23.7-28.2"/>
  <text x="-661.4" y="-429.8" text-anchor="middle" transform="rotate(-140 -84 -102.4)">
    <tspan x="-661.4" y="-429.8">220</tspan>
  </text>
  <path stroke-linecap="round" stroke-width=".9" d="M74.6 521.4l28.2-23.7"/>
  <text x="-680.2" y="-312.4" text-anchor="middle" transform="rotate(-130 -96 -98.2)">
    <tspan x="-680.2" y="-312.4">230</tspan>
  </text>
  <path stroke-linecap="round" stroke-width=".9" d="M43 476l31.8-18.3"/>
  <text x="-678.3" y="-193.5" text-anchor="middle" transform="rotate(-120 -109 -93.6)">
    <tspan x="-678.3" y="-193.5">240</tspan>
  </text>
  <path stroke-linecap="round" stroke-width=".9" d="M19.6 426l34.6-12.6"/>
  <text x="-655.8" y="-76.8" text-anchor="middle" transform="rotate(-110 -123.4 -88.5)">
    <tspan x="-655.8" y="-76.8">250</tspan>
  </text>
  <path stroke-linecap="round" stroke-width=".9" d="M5.3 372.6l36.2-6.4"/>
  <text x="-613.4" y="34.2" text-anchor="middle" transform="rotate(-100 -139.7 -82.8)">
    <tspan x="-613.4" y="34.2">260</tspan>
  </text>
  <path stroke-linecap="round" stroke-width=".9" d="M.4 317.5h36.9"/>
  <path stroke-linecap="round" stroke-width=".6" d="M.4 312l18.4.3M.5 306.5l18.4.6M.8 301l18.3 1M1 295.4l18.4 1.3M2 284.4l18.4 2M2.7 278.9l18.2 2.2M3.4 273.4l18.2 2.6M4.2 268l18.2 2.8"/>
  <path stroke-linecap="round" stroke-width=".9" d="M1.7 290l26 2.2"/>
  <path stroke-linecap="round" stroke-width=".6" d="M6.1 257l18.1 3.5M7.2 251.6l18 3.8M8.4 246.2l18 4.1M9.7 240.8l17.9 4.5M12.6 230.1l17.7 5M14.2 224.8l17.6 5.4M15.8 219.5l17.5 5.7M17.6 214.3l17.4 6"/>
  <path stroke-linecap="round" stroke-width=".9" d="M11.3 235.5l25.1 6.7"/>
  <path stroke-linecap="round" stroke-width=".6" d="M21.4 203.9l17.2 6.6M23.4 198.7l17 6.9M25.5 193.6l17 7.2M27.7 188.5l16.9 7.5M32.4 178.5l16.6 8M34.9 173.5l16.4 8.4M37.4 168.6l16.3 8.7M40 163.8l16.2 8.9"/>
  <path stroke-linecap="round" stroke-width=".9" d="M30.2 183.5l23.6 11"/>
  <path stroke-linecap="round" stroke-width=".6" d="M45.6 154.2l15.8 9.4M48.5 149.4l15.6 9.8M51.5 144.8l15.4 10M54.6 140.2l15.2 10.2M60.9 131L75.8 142M64.2 126.6l14.7 11.1M67.6 122.2L82 133.6M71 118l14.3 11.5"/>
  <path stroke-linecap="round" stroke-width=".9" d="M57.8 135.7l21.4 15"/>
  <path stroke-linecap="round" stroke-width=".6" d="M78.1 109.4l14 12.1M81.8 105.3l13.7 12.3M85.5 101.2L99 113.7M89.4 97.2l13.2 12.8M97.2 89.4l12.8 13.2M101.2 85.5L113.7 99M105.3 81.8l12.3 13.7M109.4 78.1l12.1 14"/>
  <path stroke-linecap="round" stroke-width=".9" d="M93.3 93.3l18.5 18.5"/>
  <path stroke-linecap="round" stroke-width=".6" d="M118 71l11.5 14.3M122.2 67.6L133.6 82M126.6 64.2l11.1 14.7M131 60.9L142 75.8M140.2 54.6l10.2 15.2M144.8 51.5l10 15.4M149.4 48.5l9.8 15.6M154.2 45.6l9.4 15.8"/>
  <path stroke-linecap="round" stroke-width=".9" d="M135.7 57.8l15 21.4"/>
  <path stroke-linecap="round" stroke-width=".6" d="M163.8 40l8.9 16.2M168.6 37.4l8.7 16.3M173.5 34.9l8.4 16.4M178.5 32.4l8 16.6M188.5 27.7l7.5 16.9M193.6 25.5l7.2 17M198.7 23.4l6.9 17M203.9 21.4l6.6 17.2"/>
  <path stroke-linecap="round" stroke-width=".9" d="M183.5 30.2l11 23.6"/>
  <path stroke-linecap="round" stroke-width=".6" d="M214.3 17.6l6 17.4M219.5 15.8l5.7 17.5M224.8 14.2l5.4 17.6M230.1 12.6l5 17.7M240.8 9.7l4.5 17.9M246.2 8.4l4.1 18M251.6 7.2l3.8 18M257 6.1l3.5 18.1"/>
  <path stroke-linecap="round" stroke-width=".9" d="M235.5 11.3l6.7 25.1"/>
  <path stroke-linecap="round" stroke-width=".6" d="M268 4.2l2.8 18.2M273.4 3.4l2.6 18.2M278.9 2.7l2.2 18.2M284.4 2l2 18.4M295.4 1l1.3 18.4M301 .8l1 18.3M306.5.5L307 19M312 .4l.3 18.4"/>
  <path stroke-linecap="round" stroke-width=".9" d="M290 1.7l2.2 26"/>
  <path stroke-linecap="round" stroke-width=".6" d="M323 .4l-.2 18.4M328.6.5L328 19M334.1.8l-1 18.3M339.7 1l-1.3 18.4M350.7 2l-2 18.4M356.2 2.7L354 20.9M361.7 3.4l-2.6 18.2M367.2 4.2l-3 18.2"/>
  <path stroke-linecap="round" stroke-width=".9" d="M345.2 1.7l-2.3 26"/>
  <path stroke-linecap="round" stroke-width=".6" d="M378 6.1l-3.4 18.1M383.5 7.2l-3.8 18M389 8.4l-4.2 18M394.3 9.7l-4.5 17.9M405 12.6l-5 17.7M410.3 14.2l-5.4 17.6M415.6 15.8l-5.7 17.5M420.8 17.6l-6 17.4"/>
  <path stroke-linecap="round" stroke-width=".9" d="M399.6 11.3L393 36.4"/>
  <path stroke-linecap="round" stroke-width=".6" d="M431.2 21.4l-6.6 17.2M436.4 23.4l-7 17M441.5 25.5l-7.2 17M446.6 27.7L439 44.6M456.6 32.4l-8 16.6M461.6 34.9l-8.4 16.4M466.5 37.4l-8.7 16.3M471.3 40l-8.9 16.2"/>
  <path stroke-linecap="round" stroke-width=".9" d="M451.6 30.2l-11 23.6"/>
  <path stroke-linecap="round" stroke-width=".6" d="M481 45.6l-9.5 15.8M485.7 48.5l-9.8 15.6M490.3 51.5l-10 15.4M495 54.6l-10.4 15.2M504 60.9l-10.8 14.9M508.5 64.2l-11.1 14.7M512.9 67.6L501.5 82M517.2 71l-11.6 14.3"/>
  <path stroke-linecap="round" stroke-width=".9" d="M499.4 57.8l-15 21.4"/>
  <path stroke-linecap="round" stroke-width=".6" d="M525.7 78.1l-12.1 14M529.8 81.8l-12.3 13.7M533.9 85.5L521.3 99M538 89.4L525 102.6M545.7 97.2L532.5 110M549.6 101.2L536 113.7M553.3 105.3l-13.7 12.3M557 109.4l-14 12.1"/>
  <path stroke-linecap="round" stroke-width=".9" d="M541.8 93.3l-18.5 18.5"/>
  <path stroke-linecap="round" stroke-width=".6" d="M564 118l-14.2 11.5M567.5 122.2L553 133.6M570.9 126.6l-14.7 11.1M574.2 131L559.3 142M580.5 140.2l-15.2 10.2M583.6 144.8l-15.4 10M586.6 149.4l-15.6 9.8M589.5 154.2l-15.8 9.4"/>
  <path stroke-linecap="round" stroke-width=".9" d="M577.3 135.7l-21.4 15"/>
  <path stroke-linecap="round" stroke-width=".6" d="M595 163.8l-16 8.9M597.6 168.6l-16.2 8.7M600.2 173.5l-16.4 8.4M602.7 178.5l-16.6 8M607.3 188.5l-16.8 7.5M609.6 193.6l-17 7.2M611.7 198.7l-17 6.9M613.7 203.9l-17.2 6.6"/>
  <path stroke-linecap="round" stroke-width=".9" d="M605 183.5l-23.7 11"/>
  <path stroke-linecap="round" stroke-width=".6" d="M617.5 214.3l-17.4 6M619.2 219.5l-17.5 5.7M621 224.8l-17.7 5.4M622.5 230.1l-17.7 5M625.4 240.8l-17.9 4.5M626.6 246.2l-17.9 4.1M627.8 251.6l-18 3.8M629 257l-18.1 3.5"/>
  <path stroke-linecap="round" stroke-width=".9" d="M623.8 235.5l-25.2 6.7"/>
  <path stroke-linecap="round" stroke-width=".6" d="M630.9 268l-18.2 2.8M631.7 273.4l-18.2 2.6M632.4 278.9l-18.3 2.2M633 284.4l-18.3 2M634 295.4l-18.4 1.3M634.3 301l-18.3 1M634.6 306.5l-18.4.6M634.7 312l-18.4.3"/>
  <path stroke-linecap="round" stroke-width=".9" d="M633.4 290l-26 2.2"/>
  <path stroke-linecap="round" stroke-width=".6" d="M634.7 323l-18.4-.2M634.6 328.6l-18.4-.6M634.3 334.1l-18.3-1M634 339.7l-18.4-1.3M633 350.7l-18.3-2M632.4 356.2l-18.3-2.2M631.7 361.7l-18.2-2.6M630.9 367.2l-18.2-3"/>
  <path stroke-linecap="round" stroke-width=".9" d="M633.4 345.2l-26-2.3"/>
  <path stroke-linecap="round" stroke-width=".6" d="M629 378l-18.1-3.4M627.8 383.5l-18-3.8M626.6 389l-17.9-4.2M625.4 394.3l-17.9-4.5M622.5 405l-17.7-5M621 410.3l-17.7-5.4M619.2 415.6l-17.5-5.7M617.5 420.8l-17.4-6"/>
  <path stroke-linecap="round" stroke-width=".9" d="M623.8 399.6l-25.2-6.7"/>
  <path stroke-linecap="round" stroke-width=".6" d="M613.7 431.2l-17.2-6.6M611.7 436.4l-17-7M609.6 441.5l-17-7.2M607.3 446.6l-16.8-7.5M602.7 456.6l-16.6-8M600.2 461.6l-16.4-8.4M597.6 466.5l-16.2-8.7M595 471.3l-16-8.9"/>
  <path stroke-linecap="round" stroke-width=".9" d="M605 451.6l-23.7-11"/>
  <path stroke-linecap="round" stroke-width=".6" d="M589.5 481l-15.8-9.5M586.6 485.7l-15.6-9.8M583.6 490.3l-15.4-10M580.5 495l-15.2-10.4M574.2 504l-14.9-10.8M570.9 508.5l-14.7-11.1M567.5 512.9L553 501.5M564 517.2l-14.2-11.6"/>
  <path stroke-linecap="round" stroke-width=".9" d="M577.3 499.4l-21.4-15"/>
  <path stroke-linecap="round" stroke-width=".6" d="M557 525.7l-14-12.1M553.3 529.8l-13.7-12.3M549.6 533.9L536 521.3M545.7 538L532.5 525M538 545.7L525 532.5M533.9 549.6L521.3 536M529.8 553.3l-12.3-13.7M525.7 557l-12.1-14"/>
  <path stroke-linecap="round" stroke-width=".9" d="M541.8 541.8l-18.5-18.5"/>
  <path stroke-linecap="round" stroke-width=".6" d="M517.2 564l-11.6-14.2M512.9 567.5L501.5 553M508.5 570.9l-11.1-14.7M504 574.2l-10.8-14.9M495 580.5l-10.4-15.2M490.3 583.6l-10-15.4M485.7 586.6l-9.8-15.6M481 589.5l-9.5-15.8"/>
  <path stroke-linecap="round" stroke-width=".9" d="M499.4 577.3l-15-21.4"/>
  <path stroke-linecap="round" stroke-width=".6" d="M471.3 595l-8.9-16M466.5 597.6l-8.7-16.2M461.6 600.2l-8.4-16.4M456.6 602.7l-8-16.6M446.6 607.3l-7.5-16.8M441.5 609.6l-7.2-17M436.4 611.7l-7-17M431.2 613.7l-6.6-17.2"/>
  <path stroke-linecap="round" stroke-width=".9" d="M451.6 605l-11-23.7"/>
  <path stroke-linecap="round" stroke-width=".6" d="M420.8 617.5l-6-17.4M415.6 619.2l-5.7-17.5M410.3 621l-5.4-17.7M405 622.5l-5-17.7M394.3 625.4l-4.5-17.9M389 626.6l-4.2-17.9M383.5 627.8l-3.8-18M378 629l-3.4-18.1"/>
  <path stroke-linecap="round" stroke-width=".9" d="M399.6 623.8l-6.7-25.2"/>
  <path stroke-linecap="round" stroke-width=".6" d="M367.2 630.9l-3-18.2M361.7 631.7l-2.6-18.2M356.2 632.4l-2.2-18.3M350.7 633l-2-18.3M339.7 634l-1.3-18.4M334.1 634.3l-1-18.3M328.6 634.6l-.6-18.4M323 634.7l-.2-18.4"/>
  <path stroke-linecap="round" stroke-width=".9" d="M345.2 633.4l-2.3-26"/>
  <path stroke-linecap="round" stroke-width=".6" d="M312 634.7l.3-18.4M306.5 634.6l.6-18.4M301 634.3l1-18.3M295.4 634l1.3-18.4M284.4 633l2-18.3M278.9 632.4l2.2-18.3M273.4 631.7l2.6-18.2M268 630.9l2.8-18.2"/>
  <path stroke-linecap="round" stroke-width=".9" d="M290 633.4l2.2-26"/>
  <path stroke-linecap="round" stroke-width=".6" d="M257 629l3.5-18.1M251.6 627.8l3.8-18M246.2 626.6l4.1-17.9M240.8 625.4l4.5-17.9M230.1 622.5l5-17.7M224.8 621l5.4-17.7M219.5 619.2l5.7-17.5M214.3 617.5l6-17.4"/>
  <path stroke-linecap="round" stroke-width=".9" d="M235.5 623.8l6.7-25.2"/>
  <path stroke-linecap="round" stroke-width=".6" d="M203.9 613.7l6.6-17.2M198.7 611.7l6.9-17M193.6 609.6l7.2-17M188.5 607.3l7.5-16.8M178.5 602.7l8-16.6M173.5 600.2l8.4-16.4M168.6 597.6l8.7-16.2M163.8 595l8.9-16"/>
  <path stroke-linecap="round" stroke-width=".9" d="M183.5 605l11-23.7"/>
  <path stroke-linecap="round" stroke-width=".6" d="M154.2 589.5l9.4-15.8M149.4 586.6l9.8-15.6M144.8 583.6l10-15.4M140.2 580.5l10.2-15.2M131 574.2l10.9-14.9M126.6 570.9l11.1-14.7M122.2 567.5l11.4-14.5M118 564l11.5-14.2"/>
  <path stroke-linecap="round" stroke-width=".9" d="M135.7 577.3l15-21.4"/>
  <path stroke-linecap="round" stroke-width=".6" d="M109.4 557l12.1-14M105.3 553.3l12.3-13.7M101.2 549.6l12.5-13.5M97.2 545.7l12.8-13.2M89.4 538l13.2-12.9M85.5 533.9L99 521.3M81.8 529.8l13.7-12.3M78.1 525.7l14-12.1"/>
  <path stroke-linecap="round" stroke-width=".9" d="M93.3 541.8l18.5-18.5"/>
  <path stroke-linecap="round" stroke-width=".6" d="M71 517.2l14.3-11.6M67.6 512.9L82 501.5M64.2 508.5l14.7-11.1M60.9 504l14.9-10.8M54.6 495l15.2-10.4M51.5 490.3l15.4-10M48.5 485.7l15.6-9.8M45.6 481l15.8-9.5"/>
  <path stroke-linecap="round" stroke-width=".9" d="M57.8 499.4l21.4-15"/>
  <path stroke-linecap="round" stroke-width=".6" d="M40 471.3l16.2-8.9M37.4 466.5l16.3-8.7M34.9 461.6l16.4-8.4M32.4 456.6l16.6-8M27.7 446.6l16.9-7.5M25.5 441.5l17-7.2M23.4 436.4l17-7M21.4 431.2l17.2-6.6"/>
  <path stroke-linecap="round" stroke-width=".9" d="M30.2 451.6l23.6-11"/>
  <path stroke-linecap="round" stroke-width=".6" d="M17.6 420.8l17.4-6M15.8 415.6l17.5-5.7M14.2 410.3l17.6-5.4M12.6 405l17.7-5M9.7 394.3l17.9-4.5M8.4 389l18-4.2M7.2 383.5l18-3.8M6.1 378l18.1-3.4"/>
  <path stroke-linecap="round" stroke-width=".9" d="M11.3 399.6l25.1-6.7"/>
  <path stroke-linecap="round" stroke-width=".6" d="M4.2 367.2l18.2-3M3.4 361.7l18.2-2.6M2.7 356.2l18.2-2.2M2 350.7l18.4-2M1 339.7l18.4-1.3M.8 334.1l18.3-1M.5 328.6L19 328M.4 323l18.4-.2"/>
  <path stroke-linecap="round" stroke-width=".9" d="M1.7 345.2l26-2.3"/>
</svg>
