<?xml version="1.0" standalone="no"?>
<!DOCTYPE svg PUBLIC "-//W3C//DTD SVG 20010904//EN"
 "http://www.w3.org/TR/2001/REC-SVG-20010904/DTD/svg10.dtd">
<svg version="1.0" xmlns="http://www.w3.org/2000/svg"
 width="600.000000pt" height="600.000000pt" viewBox="0 0 600.000000 600.000000"
 preserveAspectRatio="xMidYMid meet">
<metadata>
Created by potrace 1.11, written by Peter Selinger 2001-2013
</metadata>
<g transform="translate(0.000000,600.000000) scale(0.100000,-0.100000)"
fill="#000000" stroke="none">
<path d="M2829 5496 c-2 -2 -38 -6 -79 -10 -41 -3 -88 -8 -105 -11 -185 -34
-232 -43 -255 -50 -10 -3 -27 -8 -38 -10 -80 -15 -447 -156 -488 -187 -6 -4
-37 -22 -70 -39 -233 -124 -533 -370 -711 -584 -271 -326 -461 -725 -538
-1132 -32 -171 -44 -317 -40 -523 2 -113 6 -214 8 -225 3 -11 8 -45 12 -75 4
-30 9 -64 11 -75 3 -11 7 -36 10 -55 8 -54 43 -186 71 -275 90 -282 234 -553
421 -795 79 -102 288 -313 392 -396 326 -262 770 -461 1160 -520 19 -3 46 -7
60 -10 114 -19 449 -26 600 -12 216 21 514 95 700 175 176 75 437 223 545 309
17 14 35 28 40 32 90 65 316 283 385 372 19 24 46 58 60 75 195 232 397 668
464 1000 24 119 25 123 32 184 3 31 8 65 11 76 12 52 10 428 -3 540 -58 495
-238 922 -552 1310 -82 101 -263 281 -367 364 -325 261 -771 461 -1145 516
-14 2 -47 6 -75 10 -27 4 -59 9 -70 12 -26 6 -440 15 -446 9z m416 -510 c137
-22 173 -29 260 -51 561 -146 1042 -542 1294 -1065 107 -224 161 -408 189
-655 15 -129 6 -424 -16 -545 -34 -182 -63 -286 -118 -417 -284 -688 -896
-1154 -1629 -1240 -125 -15 -444 -8 -535 12 -14 3 -40 7 -58 10 -79 10 -318
79 -336 96 -6 5 -17 9 -26 9 -27 0 -269 124 -365 187 -229 151 -426 347 -577
577 -54 83 -150 265 -190 361 -40 99 -90 283 -112 415 -30 178 -28 521 4 665
5 22 12 56 15 75 21 124 95 331 172 483 200 392 512 699 906 892 170 83 372
150 517 171 19 3 42 7 50 9 8 2 44 7 80 11 36 3 67 8 69 10 6 5 363 -4 406
-10z"/>
<path d="M3640 4184 c-206 -69 -379 -127 -385 -128 -5 -2 -17 -6 -25 -9 -8 -3
-202 -68 -430 -143 -228 -75 -428 -143 -443 -151 -39 -20 -75 -52 -98 -89 -18
-30 -550 -1614 -564 -1682 -28 -134 79 -273 221 -288 57 -6 83 2 889 271 457
152 844 284 860 294 68 39 85 78 234 527 78 236 145 436 148 444 3 8 7 20 9
25 1 6 59 181 129 390 140 421 142 433 95 528 -41 82 -132 137 -224 137 -25
-1 -185 -49 -416 -126z m20 -527 c0 -3 -52 -162 -227 -692 -52 -159 -100 -293
-107 -297 -19 -13 -978 -330 -982 -325 -4 3 201 636 291 896 l32 95 484 162
c447 150 509 170 509 161z"/>
</g>
</svg>
